# xmcd
#
# Track frame offsets: 
#        150
#        18148
#        37455
#        57290
#        74141
#        94311
#        117019
#        137980
#        153524
#        188004
#        207542
#        226835
#        240717
#        256403
#        268868
#        284319
#        300297
#        322461
#        335961
#
# Disc length: 4761 seconds
#
# Revision: 0
# Processed by: cddbd v1.5.2PL0 Copyright (c) Steve Scherf et al.
# Submitted via: ExactAudioCopy v1.3
#
DISCID=2d129713
DTITLE=Various Artist - Akella Presents - vol.194 - Women's Blues  CD
DTITLE=2
DYEAR=2019
DGENRE=Blues
TTITLE0=Mindi Abair And The Boneshakers - Seven Day Fool
TTITLE1=Habaka - Ain't No Love (In the Heart of the City)
TTITLE2=Big Time Sarah - A Million Of You
TTITLE3=Maria Muldaur - I'm Sailin'
TTITLE4=Annika Chambers - Two Bit Texas Town
TTITLE5=Heather Newman - Water And Wine
TTITLE6=In Layman Terms - I'm Not Ready
TTITLE7=Melanie Mason - Work Your Magic
TTITLE8=Roxy Perry - How Blue Can You Get Stormy Monday
TTITLE9=Diana Rein - One Foot In
TTITLE10=Eleanor Tsaig - Envy
TTITLE11=Malena Stark - You Need My Love
TTITLE12=Michelle 'Evil Gal' Wilson - Two Steps Away From The Blues
TTITLE13=Georgina Peach - Palm of Your Hand
TTITLE14=Lilly Martin - Black Rat
TTITLE15=Dawn Tyler Watson - Love to Burn
TTITLE16=Vaneese Thomas - Lies
TTITLE17=Sahra da Silva - Rollin' and Tumblin'
TTITLE18=Barbara Morrison - Ain't Nobody's Business
EXTD=
EXTT0=
EXTT1=
EXTT2=
EXTT3=
EXTT4=
EXTT5=
EXTT6=
EXTT7=
EXTT8=
EXTT9=
EXTT10=
EXTT11=
EXTT12=
EXTT13=
EXTT14=
EXTT15=
EXTT16=
EXTT17=
EXTT18=
PLAYORDER=
